<svg 
 xmlns="http://www.w3.org/2000/svg"
 xmlns:xlink="http://www.w3.org/1999/xlink"
 width="459px" height="282px" viewbox="0 0 459 282">
<path fill-rule="evenodd"  fill="rgb(255, 255, 255)"
 d="M450.653,72.438 L428.118,72.438 L429.627,61.338 L412.24,61.338 L405.695,72.438 L383.272,72.438 L425.114,2.359 L458.76,2.359 L450.653,72.438 ZM433.426,23.887 L422.120,43.509 L431.89,43.509 L434.547,23.887 L433.426,23.887 ZM355.580,72.438 L348.532,47.546 C348.326,47.24 348.305,46.295 348.469,45.359 C348.634,44.426 348.897,43.360 349.258,42.164 L348.361,42.164 L337.754,72.438 L316.452,72.438 L341.140,2.359 L361.208,2.359 L368.256,27.251 C368.387,27.775 368.371,28.504 368.207,29.437 C368.42,30.373 367.779,31.438 367.418,32.633 L368.315,32.633 L379.35,2.359 L400.336,2.359 L375.648,72.438 L355.580,72.438 ZM313.731,47.490 C309.818,55.899 304.816,62.441 298.724,67.112 C292.631,71.785 284.520,74.120 274.393,74.120 C264.264,74.120 257.509,72.270 254.125,68.570 C250.740,64.870 249.728,59.170 251.85,51.470 C251.730,47.809 253.107,42.968 255.214,36.950 C257.322,30.934 259.620,25.737 262.111,21.364 C264.602,16.991 267.587,13.198 271.70,9.983 C277.769,3.780 287.174,0.677 299.282,0.677 C308.774,0.677 315.211,2.527 318.596,6.227 C321.979,9.927 322.991,15.628 321.635,23.326 C320.278,31.26 317.643,39.80 313.731,47.490 ZM292.202,19.851 C289.360,19.851 287.167,20.206 285.622,20.916 C284.77,21.627 282.856,23.253 281.961,25.793 L271.662,54.946 L280.519,54.946 C283.434,54.946 285.664,54.592 287.209,53.881 C288.754,53.172 289.977,51.546 290.874,49.4 L301.171,19.851 L292.202,19.851 ZM239.653,20.299 L221.378,72.438 L200.76,72.438 L218.351,20.299 L202.991,20.299 L208.544,4.766 L173.53,53.377 L166.442,72.438 L145.140,72.438 L151.751,53.377 L150.656,2.359 L174.201,2.359 L171.308,27.27 L172.93,27.27 L186.757,2.359 L209.405,2.359 L210.302,2.359 L261.538,2.359 L255.125,20.299 L239.653,20.299 ZM161.800,112.925 C168.322,107.94 177.525,104.179 189.410,104.179 C192.174,104.179 195.283,104.459 198.734,105.20 C202.186,105.580 204.661,106.272 206.160,107.94 L196.857,124.250 C192.631,123.204 188.593,122.680 184.745,122.680 C180.894,122.680 178.83,123.55 176.306,123.801 C174.530,124.549 173.258,126.44 172.489,128.286 L162.152,157.664 C164.737,158.263 167.449,158.561 170.291,158.561 C176.345,158.561 182.33,157.664 187.358,155.869 L182.243,174.707 C177.117,176.650 170.891,177.622 163.567,177.622 C154.150,177.622 147.726,175.791 144.299,172.128 C140.871,168.466 139.829,162.821 141.174,155.197 C141.740,151.984 143.99,147.236 145.254,140.957 C149.763,128.100 155.278,118.755 161.800,112.925 ZM111.57,72.438 L112.565,61.338 L94.963,61.338 L88.634,72.438 L66.211,72.438 L108.53,2.359 L141.15,2.359 L133.592,72.438 L111.57,72.438 ZM116.365,23.887 L105.59,43.509 L114.28,43.509 L117.486,23.887 L116.365,23.887 ZM74.61,37.455 C69.604,50.13 64.191,58.983 57.823,64.365 C51.456,69.747 42.255,72.438 30.222,72.438 L0.400,72.438 L25.88,2.359 L54.910,2.359 C64.552,2.359 71.109,4.60 74.583,7.460 C78.57,10.863 79.122,16.375 77.778,23.999 C77.91,27.887 75.853,32.372 74.61,37.455 ZM54.301,21.84 C53.197,20.562 51.373,20.299 48.833,20.299 L39.976,20.299 L28.4,54.498 L36.861,54.498 C39.776,54.498 42.6,54.144 43.552,53.433 C45.97,52.723 46.318,51.97 47.215,48.555 L55.71,26.242 C55.226,25.793 55.367,25.196 55.501,24.448 C55.804,22.729 55.404,21.608 54.301,21.84 ZM58.722,105.861 C71.503,105.861 76.885,111.579 74.870,123.16 C74.40,127.726 72.539,132.211 70.366,136.471 C66.327,144.545 61.268,149.927 55.187,152.618 L58.475,175.940 L35.43,175.940 L33.563,155.85 L28.966,155.85 L21.701,175.940 L0.400,175.940 L25.88,105.861 L58.722,105.861 ZM39.971,137.817 C42.511,137.817 44.485,137.537 45.892,136.976 C47.299,136.415 48.479,134.809 49.432,132.155 C50.385,129.502 50.916,127.876 51.23,127.277 C51.286,125.783 50.874,124.830 49.788,124.418 C48.702,124.8 46.852,123.801 44.237,123.801 L39.976,123.801 L35.38,137.817 L39.971,137.817 ZM71.952,209.363 L62.960,227.303 L39.976,227.303 L36.746,236.722 L58.48,236.722 L52.265,252.980 L30.963,252.980 L28.4,261.502 L54.127,261.502 L47.824,279.442 L0.400,279.442 L25.88,209.363 L71.952,209.363 ZM83.365,175.940 L60.942,175.940 L102.783,105.861 L135.745,105.861 L128.323,175.940 L105.788,175.940 L107.296,164.840 L89.694,164.840 L83.365,175.940 ZM108.759,147.11 L112.217,127.389 L111.96,127.389 L99.790,147.11 L108.759,147.11 ZM104.465,209.363 L111.513,234.255 C111.644,234.779 111.628,235.508 111.463,236.442 C111.299,237.377 111.36,238.442 110.675,239.637 L111.572,239.637 L122.291,209.363 L143.593,209.363 L118.905,279.442 L98.837,279.442 L91.789,254.550 C91.582,254.28 91.561,253.299 91.726,252.364 C91.891,251.430 92.153,250.365 92.514,249.168 L91.617,249.168 L81.10,279.442 L59.708,279.442 L84.396,209.363 L104.465,209.363 ZM142.675,244.459 C147.211,231.452 152.827,222.72 159.522,216.315 C166.218,210.559 176.142,207.681 189.298,207.681 C192.62,207.681 195.541,207.980 199.733,208.578 C203.925,209.177 206.964,209.850 208.851,210.596 L199.659,227.752 C194.238,226.706 189.191,226.182 184.520,226.182 C179.848,226.182 176.438,226.557 174.288,227.303 C172.139,228.51 170.679,229.546 169.910,231.788 L158.822,263.520 L165.885,263.520 C168.425,263.520 170.362,263.240 171.696,262.679 C173.27,262.119 174.59,260.829 174.787,258.811 L175.882,255.783 L170.501,255.783 L176.553,238.628 L202.228,238.628 L189.10,276.78 C179.298,279.442 169.846,281.124 160.652,281.124 C151.459,281.124 145.147,279.293 141.721,275.630 C138.292,271.968 137.250,266.323 138.595,258.699 C139.161,255.486 140.521,250.738 142.675,244.459 ZM243.712,209.363 L219.24,279.442 L197.722,279.442 L222.410,209.363 L243.712,209.363 ZM277.10,209.363 L284.57,234.255 C284.189,234.779 284.173,235.508 284.8,236.442 C283.844,237.377 283.581,238.442 283.220,239.637 L284.117,239.637 L294.836,209.363 L316.138,209.363 L291.450,279.442 L271.382,279.442 L264.334,254.550 C264.127,254.28 264.106,253.299 264.271,252.364 C264.436,251.430 264.698,250.365 265.59,249.168 L264.162,249.168 L253.555,279.442 L232.253,279.442 L256.941,209.363 L277.10,209.363 ZM354.891,104.179 C357.656,104.179 361.135,104.478 365.327,105.76 C369.519,105.675 372.558,106.348 374.445,107.94 L365.253,124.250 C359.831,123.204 354.785,122.680 350.114,122.680 C345.442,122.680 342.31,123.55 339.882,123.801 C337.733,124.549 336.273,126.44 335.504,128.286 L324.415,160.18 L331.479,160.18 C334.19,160.18 335.956,159.738 337.289,159.177 C338.621,158.617 339.653,157.327 340.381,155.309 L341.476,152.281 L336.95,152.281 L342.147,135.126 L367.821,135.126 L354.604,172.576 C344.892,175.940 335.439,177.622 326.246,177.622 C317.53,177.622 310.741,175.791 307.314,172.128 C303.886,168.466 302.844,162.821 304.189,155.197 C304.755,151.984 306.114,147.236 308.269,140.957 C312.804,127.950 318.421,118.570 325.116,112.813 C331.811,107.57 341.735,104.179 354.891,104.179 ZM190.771,175.940 L215.459,105.861 L236.761,105.861 L212.73,175.940 L190.771,175.940 ZM287.885,105.861 L309.187,105.861 L284.499,175.940 L264.430,175.940 L257.383,151.48 C257.176,150.526 257.155,149.797 257.320,148.862 C257.484,147.928 257.747,146.863 258.108,145.666 L257.211,145.666 L246.604,175.940 L225.302,175.940 L249.990,105.861 L270.59,105.861 L277.106,130.753 C277.238,131.277 277.222,132.6 277.57,132.939 C276.893,133.875 276.630,134.940 276.269,136.135 L277.166,136.135 L287.885,105.861 ZM377.129,209.363 L368.137,227.303 L345.153,227.303 L341.923,236.722 L363.225,236.722 L357.442,252.980 L336.140,252.980 L333.181,261.502 L359.304,261.502 L353.1,279.442 L305.577,279.442 L330.265,209.363 L377.129,209.363 Z"/>
</svg>