<svg 
 xmlns="http://www.w3.org/2000/svg"
 xmlns:xlink="http://www.w3.org/1999/xlink"
 width="500px" height="175px" viewbox="0 0 500 175">
<path fill-rule="evenodd"  fill="rgb(247, 247, 247)"
 d="M477.906,53.484 L477.906,59.636 L450.344,59.636 L450.344,0.820 L477.906,0.820 L477.906,6.972 L457.645,6.972 L457.645,26.208 L475.815,26.208 L475.815,32.320 L457.645,32.320 L457.645,53.484 L477.906,53.484 ZM401.732,32.730 C399.107,35.874 394.896,37.446 389.99,37.446 L382.45,37.446 L382.45,59.636 L374.744,59.636 L374.744,0.820 C375.455,0.765 376.179,0.711 376.918,0.655 C377.656,0.601 378.421,0.546 379.215,0.491 C380.554,0.382 382.79,0.314 383.788,0.286 C385.496,0.259 387.213,0.245 388.935,0.245 C392.134,0.245 394.800,0.711 396.933,1.640 C399.66,2.570 400.761,3.855 402.19,5.495 C403.304,7.136 404.193,9.64 404.685,11.278 C405.177,13.493 405.424,15.886 405.424,18.456 C405.424,21.655 405.129,24.445 404.542,26.823 C403.953,29.202 403.17,31.171 401.732,32.730 ZM396.195,9.535 C395.47,7.389 392.968,6.316 389.961,6.316 C387.609,6.316 385.695,6.398 384.218,6.562 C383.398,6.671 382.673,6.753 382.45,6.808 L382.45,31.335 L389.961,31.335 C391.136,31.335 392.209,31.124 393.180,30.699 C394.151,30.276 394.991,29.586 395.703,28.628 C396.414,27.671 396.960,26.413 397.343,24.855 C397.726,23.296 397.918,21.368 397.918,19.71 C397.918,14.861 397.343,11.682 396.195,9.535 ZM324.984,52.622 C323.671,55.165 321.880,57.66 319.611,58.323 C317.341,59.581 314.470,60.210 310.997,60.210 C307.524,60.210 304.653,59.581 302.384,58.323 C300.114,57.66 298.324,55.165 297.11,52.622 C295.699,50.79 294.776,46.887 294.242,43.45 C293.709,39.204 293.443,34.713 293.443,29.571 C293.443,24.650 293.709,20.350 294.242,16.672 C294.776,12.995 295.699,9.939 297.11,7.505 C298.324,5.72 300.114,3.254 302.384,2.50 C304.653,0.847 307.524,0.245 310.997,0.245 C314.470,0.245 317.341,0.847 319.611,2.50 C321.880,3.254 323.671,5.72 324.984,7.505 C326.296,9.939 327.219,12.995 327.752,16.672 C328.285,20.350 328.552,24.650 328.552,29.571 C328.552,34.713 328.285,39.204 327.752,43.45 C327.219,46.887 326.296,50.79 324.984,52.622 ZM320.595,18.477 C320.267,15.456 319.706,13.42 318.913,11.237 C318.148,9.460 317.115,8.209 315.817,7.485 C314.518,6.760 312.911,6.398 310.997,6.398 C309.83,6.398 307.491,6.760 306.219,7.485 C304.948,8.209 303.915,9.460 303.122,11.237 C301.646,14.656 300.908,20.904 300.908,29.982 C300.908,38.923 301.646,45.185 303.122,48.767 C303.915,50.681 304.948,52.48 306.219,52.868 C307.491,53.689 309.83,54.99 310.997,54.99 C312.911,54.99 314.518,53.689 315.817,52.868 C317.115,52.48 318.148,50.681 318.913,48.767 C319.706,46.880 320.267,44.413 320.595,41.363 C320.923,38.315 321.87,34.521 321.87,29.982 C321.87,25.333 320.923,21.498 320.595,18.477 ZM245.528,59.636 L234.741,35.273 L227.276,35.273 L227.276,59.636 L219.976,59.636 L219.976,0.820 C220.686,0.765 221.411,0.711 222.149,0.655 C222.888,0.601 223.653,0.546 224.446,0.491 C225.786,0.382 227.310,0.314 229.19,0.286 C230.728,0.259 232.444,0.245 234.167,0.245 C237.366,0.245 240.12,0.642 242.103,1.435 C244.195,2.228 245.870,3.390 247.128,4.921 C248.358,6.425 249.220,8.237 249.712,10.356 C250.204,12.475 250.450,14.820 250.450,17.390 C250.450,21.765 249.807,25.347 248.522,28.136 C247.237,30.925 245.91,32.908 242.83,34.83 L253.567,59.636 L245.528,59.636 ZM242.985,17.964 C242.985,13.890 242.425,10.930 241.304,9.84 C240.182,7.238 238.145,6.316 235.192,6.316 C232.840,6.316 230.927,6.398 229.450,6.562 C228.630,6.671 227.905,6.753 227.276,6.808 L227.276,29.161 L235.192,29.161 C236.368,29.161 237.428,29.4 238.371,28.690 C239.314,28.376 240.141,27.808 240.852,26.987 C242.274,25.402 242.985,22.394 242.985,17.964 ZM156.803,60.210 C151.990,60.210 148.155,58.939 145.298,56.396 C142.441,53.853 141.12,49.751 141.12,44.91 L141.12,0.820 L148.313,0.820 L148.313,45.691 C148.313,48.671 149.99,50.818 150.671,52.130 C152.243,53.443 154.287,54.99 156.803,54.99 C159.319,54.99 161.349,53.443 162.894,52.130 C164.439,50.818 165.211,48.671 165.211,45.691 L165.211,0.820 L172.512,0.820 L172.512,44.91 C172.512,49.751 171.97,53.853 168.267,56.396 C165.437,58.939 161.616,60.210 156.803,60.210 ZM68.160,0.820 L95.723,0.820 L95.723,6.972 L75.461,6.972 L75.461,26.208 L93.631,26.208 L93.631,32.320 L75.461,32.320 L75.461,53.484 L95.723,53.484 L95.723,59.636 L68.160,59.636 L68.160,0.820 Z"/>
<path fill-rule="evenodd"  fill="rgb(247, 247, 247)"
 d="M495.437,125.231 C495.680,125.414 496.42,125.555 496.522,125.655 C497.51,125.763 497.528,125.912 497.950,126.101 C498.373,126.291 498.734,126.558 499.35,126.902 C499.336,127.245 499.569,127.689 499.733,128.234 C499.898,128.778 499.981,129.451 499.981,130.253 C499.981,131.163 499.877,131.911 499.669,132.498 C499.461,133.86 499.168,133.547 498.788,133.884 C498.408,134.221 497.950,134.455 497.413,134.588 C496.876,134.720 496.278,134.786 495.619,134.786 C495.268,134.786 494.851,134.758 494.368,134.700 C493.884,134.643 493.449,134.564 493.63,134.464 L493.63,132.853 C493.406,132.939 493.805,133.16 494.260,133.84 C494.715,133.152 495.240,133.186 495.834,133.186 C496.600,133.186 497.155,132.966 497.499,132.525 C497.843,132.85 498.15,131.403 498.15,130.479 C498.15,129.476 497.886,128.762 497.628,128.336 C497.370,127.910 496.905,127.625 496.231,127.482 C495.616,127.353 495.96,127.186 494.674,126.982 C494.251,126.778 493.907,126.515 493.643,126.193 C493.127,125.562 492.869,124.606 492.869,123.324 C492.869,122.537 492.975,121.874 493.186,121.337 C493.397,120.800 493.700,120.363 494.94,120.27 C494.481,119.690 494.937,119.448 495.463,119.301 C495.990,119.155 496.568,119.81 497.198,119.81 C497.571,119.81 497.972,119.113 498.401,119.178 C498.831,119.242 499.211,119.321 499.540,119.414 L499.540,121.15 C499.153,120.929 498.725,120.854 498.256,120.789 C497.787,120.725 497.363,120.693 496.983,120.693 C496.375,120.693 495.863,120.890 495.447,121.283 C495.32,121.677 494.824,122.279 494.824,123.88 C494.824,123.654 494.865,124.107 494.948,124.447 C495.30,124.787 495.193,125.49 495.437,125.231 ZM480.170,119.232 L487.389,119.232 L487.389,120.843 L482.82,120.843 L482.82,125.881 L486.841,125.881 L486.841,127.482 L482.82,127.482 L482.82,133.25 L487.389,133.25 L487.389,134.636 L480.170,134.636 L480.170,119.232 ZM468.985,133.25 L470.521,133.25 L470.521,120.843 L468.985,120.843 L468.985,119.232 L473.980,119.232 L473.980,120.843 L472.444,120.843 L472.444,133.25 L473.980,133.25 L473.980,134.636 L468.985,134.636 L468.985,133.25 ZM462.258,134.636 L459.433,128.255 L457.478,128.255 L457.478,134.636 L455.566,134.636 L455.566,119.232 C455.752,119.217 455.942,119.203 456.135,119.189 C456.329,119.174 456.529,119.160 456.737,119.146 C457.88,119.117 457.487,119.99 457.935,119.92 C458.382,119.85 458.832,119.81 459.283,119.81 C460.121,119.81 460.813,119.185 461.361,119.393 C461.909,119.601 462.348,119.905 462.677,120.306 C462.999,120.700 463.225,121.174 463.354,121.729 C463.483,122.284 463.547,122.898 463.547,123.571 C463.547,124.717 463.379,125.655 463.42,126.386 C462.706,127.116 462.144,127.636 461.356,127.944 L464.364,134.636 L462.258,134.636 ZM461.592,123.722 C461.592,122.655 461.445,121.880 461.152,121.396 C460.858,120.913 460.325,120.671 459.551,120.671 C458.935,120.671 458.434,120.693 458.47,120.736 C457.832,120.764 457.643,120.786 457.478,120.800 L457.478,126.654 L459.551,126.654 C459.859,126.654 460.137,126.613 460.384,126.531 C460.631,126.449 460.847,126.300 461.34,126.85 C461.406,125.670 461.592,124.882 461.592,123.722 ZM448.87,132.799 C447.743,133.465 447.274,133.963 446.680,134.292 C446.85,134.622 445.333,134.786 444.424,134.786 C443.515,134.786 442.763,134.622 442.168,134.292 C441.574,133.963 441.105,133.465 440.761,132.799 C440.417,132.133 440.176,131.297 440.36,130.291 C439.896,129.285 439.826,128.108 439.826,126.762 C439.826,125.473 439.896,124.347 440.36,123.383 C440.176,122.420 440.417,121.620 440.761,120.983 C441.105,120.345 441.574,119.869 442.168,119.554 C442.763,119.239 443.515,119.81 444.424,119.81 C445.333,119.81 446.85,119.239 446.680,119.554 C447.274,119.869 447.743,120.345 448.87,120.983 C448.431,121.620 448.673,122.420 448.812,123.383 C448.952,124.347 449.22,125.473 449.22,126.762 C449.22,128.108 448.952,129.285 448.812,130.291 C448.673,131.297 448.431,132.133 448.87,132.799 ZM446.938,123.856 C446.852,123.65 446.705,122.433 446.497,121.960 C446.297,121.495 446.26,121.167 445.686,120.977 C445.346,120.788 444.925,120.693 444.424,120.693 C443.923,120.693 443.506,120.788 443.173,120.977 C442.840,121.167 442.569,121.495 442.362,121.960 C441.975,122.855 441.781,124.492 441.781,126.869 C441.781,129.211 441.975,130.851 442.362,131.789 C442.569,132.291 442.840,132.649 443.173,132.863 C443.506,133.78 443.923,133.186 444.424,133.186 C444.925,133.186 445.346,133.78 445.686,132.863 C446.26,132.649 446.297,132.291 446.497,131.789 C446.705,131.295 446.852,130.649 446.938,129.850 C447.24,129.52 447.67,128.58 447.67,126.869 C447.67,125.652 447.24,124.648 446.938,123.856 ZM434.717,173.884 C434.338,174.221 433.879,174.455 433.342,174.588 C432.805,174.720 432.207,174.786 431.548,174.786 C431.197,174.786 430.780,174.758 430.297,174.700 C429.813,174.643 429.378,174.564 428.992,174.464 L428.992,172.853 C429.335,172.939 429.735,173.16 430.189,173.84 C430.644,173.152 431.169,173.186 431.763,173.186 C432.529,173.186 433.84,172.966 433.428,172.525 C433.772,172.85 433.944,171.403 433.944,170.479 C433.944,169.476 433.815,168.762 433.557,168.336 C433.299,167.910 432.834,167.625 432.161,167.482 C431.545,167.353 431.25,167.186 430.603,166.982 C430.180,166.778 429.837,166.515 429.572,166.193 C429.56,165.562 428.798,164.606 428.798,163.324 C428.798,162.537 428.904,161.874 429.115,161.337 C429.326,160.800 429.629,160.363 430.23,160.27 C430.410,159.690 430.866,159.448 431.393,159.301 C431.919,159.155 432.497,159.81 433.127,159.81 C433.500,159.81 433.901,159.113 434.331,159.178 C434.760,159.242 435.140,159.321 435.469,159.414 L435.469,161.15 C435.83,160.929 434.655,160.854 434.186,160.789 C433.716,160.725 433.292,160.693 432.913,160.693 C432.304,160.693 431.792,160.890 431.376,161.283 C430.961,161.677 430.753,162.279 430.753,163.88 C430.753,163.654 430.795,164.107 430.877,164.447 C430.959,164.787 431.122,165.49 431.366,165.231 C431.609,165.414 431.971,165.555 432.451,165.655 C432.981,165.763 433.457,165.912 433.879,166.101 C434.302,166.291 434.664,166.558 434.964,166.902 C435.265,167.245 435.498,167.689 435.663,168.234 C435.827,168.778 435.910,169.451 435.910,170.253 C435.910,171.163 435.806,171.911 435.598,172.498 C435.390,173.86 435.97,173.547 434.717,173.884 ZM432.283,133.884 C431.904,134.221 431.445,134.455 430.908,134.588 C430.371,134.720 429.773,134.786 429.114,134.786 C428.763,134.786 428.346,134.758 427.863,134.700 C427.379,134.643 426.944,134.564 426.558,134.464 L426.558,132.853 C426.901,132.939 427.301,133.16 427.755,133.84 C428.210,133.152 428.735,133.186 429.329,133.186 C430.95,133.186 430.650,132.966 430.994,132.525 C431.338,132.85 431.510,131.403 431.510,130.479 C431.510,129.476 431.381,128.762 431.123,128.336 C430.865,127.910 430.400,127.625 429.727,127.482 C429.111,127.353 428.591,127.186 428.169,126.982 C427.746,126.778 427.403,126.515 427.138,126.193 C426.622,125.562 426.364,124.606 426.364,123.324 C426.364,122.537 426.470,121.874 426.681,121.337 C426.892,120.800 427.195,120.363 427.589,120.27 C427.976,119.690 428.432,119.448 428.959,119.301 C429.485,119.155 430.63,119.81 430.693,119.81 C431.66,119.81 431.467,119.113 431.897,119.178 C432.326,119.242 432.706,119.321 433.35,119.414 L433.35,121.15 C432.648,120.929 432.220,120.854 431.752,120.789 C431.282,120.725 430.858,120.693 430.479,120.693 C429.870,120.693 429.358,120.890 428.942,121.283 C428.527,121.677 428.319,122.279 428.319,123.88 C428.319,123.654 428.361,124.107 428.443,124.447 C428.525,124.787 428.688,125.49 428.932,125.231 C429.175,125.414 429.537,125.555 430.17,125.655 C430.547,125.763 431.23,125.912 431.445,126.101 C431.868,126.291 432.230,126.558 432.530,126.902 C432.831,127.245 433.64,127.689 433.229,128.234 C433.393,128.778 433.476,129.451 433.476,130.253 C433.476,131.163 433.372,131.911 433.164,132.498 C432.956,133.86 432.663,133.547 432.283,133.884 ZM421.792,174.636 L418.967,168.255 L417.12,168.255 L417.12,174.636 L415.100,174.636 L415.100,159.232 C415.286,159.217 415.476,159.203 415.669,159.189 C415.863,159.174 416.63,159.160 416.271,159.146 C416.622,159.117 417.21,159.99 417.469,159.92 C417.916,159.85 418.366,159.81 418.817,159.81 C419.655,159.81 420.347,159.185 420.895,159.393 C421.443,159.601 421.882,159.905 422.211,160.306 C422.533,160.700 422.759,161.174 422.888,161.729 C423.17,162.284 423.81,162.898 423.81,163.571 C423.81,164.717 422.913,165.655 422.576,166.386 C422.240,167.116 421.678,167.636 420.890,167.944 L423.898,174.636 L421.792,174.636 ZM421.126,163.722 C421.126,162.655 420.979,161.880 420.686,161.396 C420.392,160.913 419.859,160.671 419.85,160.671 C418.469,160.671 417.968,160.693 417.581,160.736 C417.366,160.764 417.177,160.786 417.12,160.800 L417.12,166.654 L419.85,166.654 C419.393,166.654 419.671,166.613 419.918,166.531 C420.165,166.449 420.381,166.300 420.568,166.85 C420.940,165.670 421.126,164.882 421.126,163.722 ZM418.982,133.884 C418.603,134.221 418.144,134.455 417.607,134.588 C417.70,134.720 416.472,134.786 415.813,134.786 C415.462,134.786 415.45,134.758 414.562,134.700 C414.78,134.643 413.643,134.564 413.257,134.464 L413.257,132.853 C413.600,132.939 414.0,133.16 414.454,133.84 C414.909,133.152 415.434,133.186 416.28,133.186 C416.794,133.186 417.349,132.966 417.693,132.525 C418.37,132.85 418.209,131.403 418.209,130.479 C418.209,129.476 418.80,128.762 417.822,128.336 C417.564,127.910 417.99,127.625 416.426,127.482 C415.810,127.353 415.290,127.186 414.868,126.982 C414.445,126.778 414.102,126.515 413.837,126.193 C413.321,125.562 413.63,124.606 413.63,123.324 C413.63,122.537 413.169,121.874 413.380,121.337 C413.591,120.800 413.894,120.363 414.288,120.27 C414.675,119.690 415.131,119.448 415.658,119.301 C416.184,119.155 416.762,119.81 417.392,119.81 C417.765,119.81 418.166,119.113 418.596,119.178 C419.25,119.242 419.405,119.321 419.734,119.414 L419.734,121.15 C419.347,120.929 418.919,120.854 418.451,120.789 C417.981,120.725 417.557,120.693 417.178,120.693 C416.569,120.693 416.57,120.890 415.641,121.283 C415.226,121.677 415.18,122.279 415.18,123.88 C415.18,123.654 415.60,124.107 415.142,124.447 C415.224,124.787 415.387,125.49 415.631,125.231 C415.874,125.414 416.236,125.555 416.716,125.655 C417.246,125.763 417.722,125.912 418.144,126.101 C418.567,126.291 418.929,126.558 419.229,126.902 C419.530,127.245 419.763,127.689 419.928,128.234 C420.92,128.778 420.175,129.451 420.175,130.253 C420.175,131.163 420.71,131.911 419.863,132.498 C419.655,133.86 419.362,133.547 418.982,133.884 ZM401.799,159.232 L409.18,159.232 L409.18,160.843 L403.711,160.843 L403.711,165.881 L408.470,165.881 L408.470,167.482 L403.711,167.482 L403.711,173.25 L409.18,173.25 L409.18,174.636 L401.799,174.636 L401.799,159.232 ZM400.364,119.232 L407.583,119.232 L407.583,120.843 L402.276,120.843 L402.276,125.881 L407.35,125.881 L407.35,127.482 L402.276,127.482 L402.276,133.25 L407.583,133.25 L407.583,134.636 L400.364,134.636 L400.364,119.232 ZM390.410,174.636 L387.391,159.232 L389.325,159.232 L391.753,172.702 L394.363,159.232 L396.254,159.232 L393.20,174.636 L390.410,174.636 ZM392.869,134.722 C392.543,134.765 392.276,134.786 392.69,134.786 C391.274,134.786 390.597,134.674 390.39,134.448 C389.480,134.222 389.22,133.809 388.664,133.207 C388.305,132.606 388.42,131.780 387.874,130.731 C387.706,129.682 387.622,128.337 387.622,126.697 C387.622,125.65 387.716,123.754 387.906,122.766 C388.96,121.778 388.388,121.8 388.782,120.456 C389.168,119.905 389.655,119.538 390.243,119.355 C390.830,119.173 391.524,119.81 392.327,119.81 C392.677,119.81 393.55,119.113 393.460,119.178 C393.864,119.242 394.214,119.314 394.507,119.393 L394.507,121.15 C393.719,120.829 392.860,120.736 391.929,120.736 C391.535,120.736 391.188,120.805 390.887,120.945 C390.586,121.85 390.343,121.369 390.157,121.799 C389.963,122.229 389.818,122.845 389.722,123.647 C389.625,124.449 389.577,125.516 389.577,126.848 C389.577,128.230 389.628,129.333 389.732,130.156 C389.836,130.980 389.988,131.614 390.189,132.58 C390.382,132.495 390.626,132.785 390.919,132.928 C391.213,133.71 391.557,133.143 391.951,133.143 C392.409,133.143 392.880,133.105 393.363,133.30 C393.847,132.955 394.228,132.881 394.507,132.810 L394.507,134.421 C394.357,134.464 394.128,134.514 393.820,134.571 C393.512,134.629 393.195,134.679 392.869,134.722 ZM381.460,172.799 C381.116,173.465 380.647,173.963 380.52,174.292 C379.458,174.622 378.706,174.786 377.797,174.786 C376.887,174.786 376.135,174.622 375.541,174.292 C374.946,173.963 374.477,173.465 374.133,172.799 C373.790,172.133 373.548,171.297 373.408,170.291 C373.269,169.285 373.199,168.108 373.199,166.762 C373.199,165.473 373.269,164.347 373.408,163.383 C373.548,162.420 373.790,161.620 374.133,160.983 C374.477,160.345 374.946,159.869 375.541,159.554 C376.135,159.239 376.887,159.81 377.797,159.81 C378.706,159.81 379.458,159.239 380.52,159.554 C380.647,159.869 381.116,160.345 381.460,160.983 C381.803,161.620 382.45,162.420 382.185,163.383 C382.324,164.347 382.394,165.473 382.394,166.762 C382.394,168.108 382.324,169.285 382.185,170.291 C382.45,171.297 381.803,172.133 381.460,172.799 ZM380.310,163.856 C380.224,163.65 380.77,162.433 379.870,161.960 C379.669,161.495 379.399,161.167 379.59,160.977 C378.719,160.788 378.298,160.693 377.797,160.693 C377.295,160.693 376.878,160.788 376.545,160.977 C376.212,161.167 375.942,161.495 375.734,161.960 C375.347,162.855 375.154,164.492 375.154,166.869 C375.154,169.211 375.347,170.851 375.734,171.789 C375.942,172.291 376.212,172.649 376.545,172.863 C376.878,173.78 377.295,173.186 377.797,173.186 C378.298,173.186 378.719,173.78 379.59,172.863 C379.399,172.649 379.669,172.291 379.870,171.789 C380.77,171.295 380.224,170.649 380.310,169.850 C380.396,169.52 380.439,168.58 380.439,166.869 C380.439,165.652 380.396,164.648 380.310,163.856 ZM380.567,134.722 C380.241,134.765 379.974,134.786 379.767,134.786 C378.972,134.786 378.295,134.674 377.737,134.448 C377.178,134.222 376.720,133.809 376.362,133.207 C376.3,132.606 375.740,131.780 375.572,130.731 C375.404,129.682 375.320,128.337 375.320,126.697 C375.320,125.65 375.414,123.754 375.604,122.766 C375.794,121.778 376.86,121.8 376.480,120.456 C376.866,119.905 377.353,119.538 377.941,119.355 C378.528,119.173 379.223,119.81 380.25,119.81 C380.375,119.81 380.753,119.113 381.158,119.178 C381.562,119.242 381.912,119.314 382.205,119.393 L382.205,121.15 C381.417,120.829 380.558,120.736 379.627,120.736 C379.233,120.736 378.886,120.805 378.585,120.945 C378.284,121.85 378.41,121.369 377.855,121.799 C377.661,122.229 377.516,122.845 377.420,123.647 C377.323,124.449 377.275,125.516 377.275,126.848 C377.275,128.230 377.327,129.333 377.430,130.156 C377.534,130.980 377.686,131.614 377.887,132.58 C378.80,132.495 378.324,132.785 378.617,132.928 C378.911,133.71 379.255,133.143 379.649,133.143 C380.107,133.143 380.578,133.105 381.61,133.30 C381.545,132.955 381.926,132.881 382.205,132.810 L382.205,134.421 C382.55,134.464 381.826,134.514 381.518,134.571 C381.210,134.629 380.893,134.679 380.567,134.722 ZM367.690,130.747 L363.394,130.747 L362.534,134.636 L360.579,134.636 L364.296,119.232 L366.831,119.232 L370.483,134.636 L368.518,134.636 L367.690,130.747 ZM365.531,120.693 L363.748,129.93 L367.336,129.93 L365.531,120.693 ZM338.731,159.232 L345.950,159.232 L345.950,160.843 L340.644,160.843 L340.644,165.881 L345.402,165.881 L345.402,167.482 L340.644,167.482 L340.644,173.25 L345.950,173.25 L345.950,174.636 L338.731,174.636 L338.731,159.232 ZM344.462,133.207 C344.89,133.809 343.624,134.222 343.65,134.448 C342.506,134.674 341.858,134.786 341.121,134.786 C340.698,134.786 340.263,134.783 339.816,134.776 C339.368,134.768 338.954,134.750 338.575,134.722 C338.353,134.707 338.136,134.693 337.925,134.679 C337.714,134.664 337.504,134.650 337.297,134.636 L337.297,119.232 C337.497,119.217 337.697,119.203 337.898,119.189 C338.98,119.174 338.303,119.160 338.510,119.146 C338.861,119.117 339.246,119.99 339.665,119.92 C340.84,119.85 340.483,119.81 340.863,119.81 C341.636,119.81 342.318,119.173 342.909,119.355 C343.500,119.538 343.992,119.905 344.386,120.456 C344.787,121.8 345.85,121.778 345.278,122.766 C345.471,123.754 345.568,125.65 345.568,126.697 C345.568,128.337 345.478,129.682 345.299,130.731 C345.120,131.780 344.841,132.606 344.462,133.207 ZM343.452,123.657 C343.344,122.848 343.187,122.225 342.979,121.788 C342.779,121.352 342.540,121.60 342.265,120.913 C341.989,120.766 341.683,120.693 341.346,120.693 C341.139,120.693 340.915,120.696 340.675,120.703 C340.435,120.711 340.204,120.721 339.982,120.736 C339.846,120.743 339.713,120.750 339.585,120.757 C339.456,120.764 339.330,120.771 339.209,120.778 L339.209,133.100 C339.323,133.107 339.440,133.114 339.558,133.121 C339.676,133.128 339.796,133.136 339.918,133.143 C340.118,133.157 340.344,133.168 340.594,133.175 C340.845,133.182 341.88,133.186 341.325,133.186 C341.661,133.186 341.973,133.82 342.259,132.874 C342.546,132.667 342.789,132.316 342.990,131.821 C343.183,131.335 343.335,130.685 343.446,129.872 C343.557,129.59 343.613,128.51 343.613,126.848 C343.613,125.530 343.559,124.467 343.452,123.657 ZM326.430,159.232 L328.342,159.232 L328.342,172.960 L333.251,172.960 L333.251,174.636 L326.430,174.636 L326.430,159.232 ZM323.781,120.864 L323.781,134.636 L321.997,134.636 L321.997,119.232 L325.123,119.232 L328.507,133.3 L328.507,119.232 L330.290,119.232 L330.290,134.636 L327.143,134.636 L323.781,120.864 ZM318.935,174.722 C318.609,174.765 318.342,174.786 318.134,174.786 C317.340,174.786 316.663,174.674 316.104,174.448 C315.546,174.222 315.87,173.809 314.729,173.207 C314.371,172.606 314.108,171.780 313.940,170.731 C313.771,169.682 313.687,168.337 313.687,166.697 C313.687,165.65 313.782,163.754 313.972,162.766 C314.161,161.778 314.453,161.8 314.847,160.456 C315.234,159.905 315.721,159.538 316.308,159.355 C316.895,159.173 317.590,159.81 318.392,159.81 C318.743,159.81 319.121,159.113 319.526,159.178 C319.930,159.242 320.279,159.314 320.573,159.393 L320.573,161.15 C319.785,160.829 318.926,160.736 317.995,160.736 C317.601,160.736 317.254,160.805 316.953,160.945 C316.652,161.85 316.408,161.369 316.222,161.799 C316.29,162.229 315.884,162.845 315.787,163.647 C315.691,164.449 315.642,165.516 315.642,166.848 C315.642,168.230 315.694,169.333 315.798,170.156 C315.902,170.980 316.54,171.614 316.255,172.58 C316.448,172.495 316.691,172.785 316.985,172.928 C317.279,173.71 317.622,173.143 318.16,173.143 C318.474,173.143 318.945,173.105 319.429,173.30 C319.912,172.955 320.294,172.881 320.573,172.810 L320.573,174.421 C320.423,174.464 320.193,174.514 319.885,174.571 C319.577,174.629 319.261,174.679 318.935,174.722 ZM313.488,130.747 L309.191,130.747 L308.331,134.636 L306.376,134.636 L310.93,119.232 L312.628,119.232 L316.280,134.636 L314.315,134.636 L313.488,130.747 ZM311.328,120.693 L309.545,129.93 L313.133,129.93 L311.328,120.693 ZM308.969,159.232 L304.962,167.482 L304.962,174.636 L302.986,174.636 L302.986,167.482 L299.43,159.232 L301.160,159.232 L304.60,165.634 L306.960,159.232 L308.969,159.232 ZM292.988,174.722 C292.662,174.765 292.395,174.786 292.188,174.786 C291.393,174.786 290.716,174.674 290.157,174.448 C289.599,174.222 289.140,173.809 288.782,173.207 C288.424,172.606 288.161,171.780 287.993,170.731 C287.825,169.682 287.740,168.337 287.740,166.697 C287.740,165.65 287.835,163.754 288.25,162.766 C288.215,161.778 288.507,161.8 288.901,160.456 C289.287,159.905 289.774,159.538 290.362,159.355 C290.949,159.173 291.643,159.81 292.446,159.81 C292.796,159.81 293.174,159.113 293.579,159.178 C293.983,159.242 294.332,159.314 294.626,159.393 L294.626,161.15 C293.838,160.829 292.979,160.736 292.48,160.736 C291.654,160.736 291.307,160.805 291.6,160.945 C290.705,161.85 290.462,161.369 290.276,161.799 C290.82,162.229 289.937,162.845 289.841,163.647 C289.744,164.449 289.696,165.516 289.696,166.848 C289.696,168.230 289.747,169.333 289.851,170.156 C289.955,170.980 290.107,171.614 290.308,172.58 C290.501,172.495 290.745,172.785 291.38,172.928 C291.332,173.71 291.676,173.143 292.70,173.143 C292.528,173.143 292.999,173.105 293.482,173.30 C293.966,172.955 294.347,172.881 294.626,172.810 L294.626,174.421 C294.476,174.464 294.247,174.514 293.939,174.571 C293.631,174.629 293.314,174.679 292.988,174.722 ZM290.409,133.884 C290.29,134.221 289.571,134.455 289.34,134.588 C288.497,134.720 287.899,134.786 287.240,134.786 C286.889,134.786 286.472,134.758 285.989,134.700 C285.505,134.643 285.70,134.564 284.683,134.464 L284.683,132.853 C285.27,132.939 285.426,133.16 285.881,133.84 C286.336,133.152 286.860,133.186 287.455,133.186 C288.221,133.186 288.776,132.966 289.120,132.525 C289.464,132.85 289.636,131.403 289.636,130.479 C289.636,129.476 289.507,128.762 289.249,128.336 C288.991,127.910 288.525,127.625 287.852,127.482 C287.236,127.353 286.717,127.186 286.295,126.982 C285.872,126.778 285.528,126.515 285.263,126.193 C284.748,125.562 284.490,124.606 284.490,123.324 C284.490,122.537 284.596,121.874 284.807,121.337 C285.18,120.800 285.321,120.363 285.715,120.27 C286.101,119.690 286.558,119.448 287.84,119.301 C287.611,119.155 288.189,119.81 288.819,119.81 C289.191,119.81 289.593,119.113 290.22,119.178 C290.452,119.242 290.831,119.321 291.161,119.414 L291.161,121.15 C290.774,120.929 290.346,120.854 289.877,120.789 C289.408,120.725 288.984,120.693 288.604,120.693 C287.996,120.693 287.483,120.890 287.68,121.283 C286.653,121.677 286.445,122.279 286.445,123.88 C286.445,123.654 286.486,124.107 286.569,124.447 C286.651,124.787 286.814,125.49 287.57,125.231 C287.301,125.414 287.663,125.555 288.142,125.655 C288.672,125.763 289.148,125.912 289.571,126.101 C289.994,126.291 290.355,126.558 290.656,126.902 C290.957,127.245 291.189,127.689 291.354,128.234 C291.519,128.778 291.601,129.451 291.601,130.253 C291.601,131.163 291.497,131.911 291.290,132.498 C291.82,133.86 290.788,133.547 290.409,133.884 ZM281.14,174.636 L278.189,168.255 L276.233,168.255 L276.233,174.636 L274.321,174.636 L274.321,159.232 C274.507,159.217 274.697,159.203 274.891,159.189 C275.84,159.174 275.284,159.160 275.492,159.146 C275.843,159.117 276.242,159.99 276.690,159.92 C277.137,159.85 277.587,159.81 278.38,159.81 C278.876,159.81 279.569,159.185 280.117,159.393 C280.665,159.601 281.103,159.905 281.433,160.306 C281.755,160.700 281.981,161.174 282.109,161.729 C282.238,162.284 282.303,162.898 282.303,163.571 C282.303,164.717 282.134,165.655 281.798,166.386 C281.461,167.116 280.899,167.636 280.111,167.944 L283.119,174.636 L281.14,174.636 ZM280.348,163.722 C280.348,162.655 280.201,161.880 279.907,161.396 C279.614,160.913 279.80,160.671 278.307,160.671 C277.691,160.671 277.190,160.693 276.803,160.736 C276.588,160.764 276.398,160.786 276.233,160.800 L276.233,166.654 L278.307,166.654 C278.615,166.654 278.892,166.613 279.139,166.531 C279.386,166.449 279.603,166.300 279.789,166.85 C280.161,165.670 280.348,164.882 280.348,163.722 ZM276.549,134.636 L274.627,134.636 L274.627,120.907 L271.243,120.907 L271.243,119.232 L279.933,119.232 L279.933,120.907 L276.549,120.907 L276.549,134.636 ZM266.843,172.799 C266.499,173.465 266.30,173.963 265.435,174.292 C264.841,174.622 264.89,174.786 263.180,174.786 C262.270,174.786 261.518,174.622 260.924,174.292 C260.329,173.963 259.860,173.465 259.516,172.799 C259.173,172.133 258.931,171.297 258.791,170.291 C258.652,169.285 258.582,168.108 258.582,166.762 C258.582,165.473 258.652,164.347 258.791,163.383 C258.931,162.420 259.173,161.620 259.516,160.983 C259.860,160.345 260.329,159.869 260.924,159.554 C261.518,159.239 262.270,159.81 263.180,159.81 C264.89,159.81 264.841,159.239 265.435,159.554 C266.30,159.869 266.499,160.345 266.843,160.983 C267.186,161.620 267.428,162.420 267.568,163.383 C267.707,164.347 267.777,165.473 267.777,166.762 C267.777,168.108 267.707,169.285 267.568,170.291 C267.428,171.297 267.186,172.133 266.843,172.799 ZM265.693,163.856 C265.607,163.65 265.460,162.433 265.253,161.960 C265.52,161.495 264.782,161.167 264.442,160.977 C264.102,160.788 263.681,160.693 263.180,160.693 C262.678,160.693 262.261,160.788 261.928,160.977 C261.595,161.167 261.325,161.495 261.117,161.960 C260.730,162.855 260.537,164.492 260.537,166.869 C260.537,169.211 260.730,170.851 261.117,171.789 C261.325,172.291 261.595,172.649 261.928,172.863 C262.261,173.78 262.678,173.186 263.180,173.186 C263.681,173.186 264.102,173.78 264.442,172.863 C264.782,172.649 265.52,172.291 265.253,171.789 C265.460,171.295 265.607,170.649 265.693,169.850 C265.779,169.52 265.822,168.58 265.822,166.869 C265.822,165.652 265.779,164.648 265.693,163.856 ZM265.622,134.636 L262.797,128.255 L260.842,128.255 L260.842,134.636 L258.930,134.636 L258.930,119.232 C259.116,119.217 259.306,119.203 259.499,119.189 C259.693,119.174 259.893,119.160 260.101,119.146 C260.452,119.117 260.851,119.99 261.299,119.92 C261.746,119.85 262.196,119.81 262.647,119.81 C263.485,119.81 264.178,119.185 264.725,119.393 C265.273,119.601 265.712,119.905 266.41,120.306 C266.364,120.700 266.589,121.174 266.718,121.729 C266.847,122.284 266.912,122.898 266.912,123.571 C266.912,124.717 266.743,125.655 266.407,126.386 C266.70,127.116 265.508,127.636 264.720,127.944 L267.728,134.636 L265.622,134.636 ZM264.956,123.722 C264.956,122.655 264.810,121.880 264.516,121.396 C264.222,120.913 263.689,120.671 262.915,120.671 C262.299,120.671 261.798,120.693 261.412,120.736 C261.197,120.764 261.7,120.786 260.842,120.800 L260.842,126.654 L262.915,126.654 C263.223,126.654 263.501,126.613 263.748,126.531 C263.995,126.449 264.212,126.300 264.398,126.85 C264.770,125.670 264.956,124.882 264.956,123.722 ZM250.921,174.636 L248.998,174.636 L248.998,160.907 L245.614,160.907 L245.614,159.232 L254.304,159.232 L254.304,160.907 L250.921,160.907 L250.921,174.636 ZM250.420,130.747 L246.123,130.747 L245.264,134.636 L243.309,134.636 L247.26,119.232 L249.561,119.232 L253.213,134.636 L251.247,134.636 L250.420,130.747 ZM248.261,120.693 L246.478,129.93 L250.66,129.93 L248.261,120.693 ZM240.123,172.799 C239.779,173.465 239.310,173.963 238.715,174.292 C238.121,174.622 237.369,174.786 236.459,174.786 C235.550,174.786 234.798,174.622 234.204,174.292 C233.609,173.963 233.140,173.465 232.796,172.799 C232.453,172.133 232.211,171.297 232.71,170.291 C231.932,169.285 231.862,168.108 231.862,166.762 C231.862,165.473 231.932,164.347 232.71,163.383 C232.211,162.420 232.453,161.620 232.796,160.983 C233.140,160.345 233.609,159.869 234.204,159.554 C234.798,159.239 235.550,159.81 236.459,159.81 C237.369,159.81 238.121,159.239 238.715,159.554 C239.310,159.869 239.779,160.345 240.123,160.983 C240.466,161.620 240.708,162.420 240.848,163.383 C240.987,164.347 241.57,165.473 241.57,166.762 C241.57,168.108 240.987,169.285 240.848,170.291 C240.708,171.297 240.466,172.133 240.123,172.799 ZM238.973,163.856 C238.887,163.65 238.740,162.433 238.533,161.960 C238.332,161.495 238.62,161.167 237.722,160.977 C237.381,160.788 236.961,160.693 236.459,160.693 C235.958,160.693 235.541,160.788 235.208,160.977 C234.875,161.167 234.605,161.495 234.397,161.960 C234.10,162.855 233.817,164.492 233.817,166.869 C233.817,169.211 234.10,170.851 234.397,171.789 C234.605,172.291 234.875,172.649 235.208,172.863 C235.541,173.78 235.958,173.186 236.459,173.186 C236.961,173.186 237.381,173.78 237.722,172.863 C238.62,172.649 238.332,172.291 238.533,171.789 C238.740,171.295 238.887,170.649 238.973,169.850 C239.59,169.52 239.102,168.58 239.102,166.869 C239.102,165.652 239.59,164.648 238.973,163.856 ZM238.494,127.589 C237.807,128.413 236.704,128.824 235.186,128.824 L233.338,128.824 L233.338,134.636 L231.426,134.636 L231.426,119.232 C231.612,119.217 231.802,119.203 231.995,119.189 C232.188,119.174 232.389,119.160 232.597,119.146 C232.947,119.117 233.347,119.99 233.794,119.92 C234.242,119.85 234.691,119.81 235.143,119.81 C235.980,119.81 236.679,119.203 237.237,119.446 C237.796,119.690 238.240,120.27 238.569,120.456 C238.906,120.886 239.139,121.391 239.268,121.971 C239.396,122.551 239.461,123.178 239.461,123.851 C239.461,124.689 239.384,125.419 239.230,126.42 C239.76,126.665 238.831,127.181 238.494,127.589 ZM237.44,121.514 C236.743,120.952 236.199,120.671 235.411,120.671 C234.795,120.671 234.294,120.693 233.907,120.736 C233.692,120.764 233.503,120.786 233.338,120.800 L233.338,127.224 L235.411,127.224 C235.719,127.224 236.0,127.168 236.254,127.57 C236.509,126.946 236.729,126.766 236.915,126.515 C237.101,126.264 237.244,125.935 237.345,125.527 C237.445,125.118 237.495,124.613 237.495,124.12 C237.495,122.909 237.345,122.77 237.44,121.514 ZM223.298,160.821 L220.946,169.469 L219.119,169.469 L216.767,160.821 L216.767,174.636 L215.5,174.636 L215.5,159.232 L218.110,159.232 L220.108,167.116 L222.84,159.232 L225.124,159.232 L225.124,174.636 L223.298,174.636 L223.298,160.821 ZM208.820,119.232 L216.39,119.232 L216.39,120.843 L210.732,120.843 L210.732,125.881 L215.491,125.881 L215.491,127.482 L210.732,127.482 L210.732,133.25 L216.39,133.25 L216.39,134.636 L208.820,134.636 L208.820,119.232 ZM201.325,134.722 C200.999,134.765 200.732,134.786 200.525,134.786 C199.730,134.786 199.53,134.674 198.495,134.448 C197.936,134.222 197.478,133.809 197.120,133.207 C196.761,132.606 196.498,131.780 196.330,130.731 C196.162,129.682 196.78,128.337 196.78,126.697 C196.78,125.65 196.172,123.754 196.362,122.766 C196.552,121.778 196.844,121.8 197.238,120.456 C197.624,119.905 198.111,119.538 198.699,119.355 C199.286,119.173 199.980,119.81 200.783,119.81 C201.133,119.81 201.511,119.113 201.916,119.178 C202.320,119.242 202.670,119.314 202.963,119.393 L202.963,121.15 C202.175,120.829 201.316,120.736 200.385,120.736 C199.991,120.736 199.644,120.805 199.343,120.945 C199.42,121.85 198.799,121.369 198.613,121.799 C198.419,122.229 198.274,122.845 198.178,123.647 C198.81,124.449 198.33,125.516 198.33,126.848 C198.33,128.230 198.84,129.333 198.188,130.156 C198.292,130.980 198.444,131.614 198.645,132.58 C198.838,132.495 199.82,132.785 199.375,132.928 C199.669,133.71 200.13,133.143 200.407,133.143 C200.865,133.143 201.336,133.105 201.819,133.30 C202.303,132.955 202.684,132.881 202.963,132.810 L202.963,134.421 C202.813,134.464 202.584,134.514 202.276,134.571 C201.968,134.629 201.651,134.679 201.325,134.722 ZM199.618,160.843 L194.311,160.843 L194.311,165.881 L199.70,165.881 L199.70,167.482 L194.311,167.482 L194.311,173.25 L199.618,173.25 L199.618,174.636 L192.399,174.636 L192.399,159.232 L199.618,159.232 L199.618,160.843 ZM183.2,120.864 L183.2,134.636 L181.219,134.636 L181.219,119.232 L184.345,119.232 L187.729,133.3 L187.729,119.232 L189.512,119.232 L189.512,134.636 L186.364,134.636 L183.2,120.864 ZM183.546,159.232 L185.458,159.232 L185.458,174.636 L183.546,174.636 L183.546,167.557 L179.12,167.557 L179.12,174.636 L177.100,174.636 L177.100,159.232 L179.12,159.232 L179.12,165.924 L183.546,165.924 L183.546,159.232 ZM172.709,130.747 L168.412,130.747 L167.553,134.636 L165.598,134.636 L169.314,119.232 L171.850,119.232 L175.502,134.636 L173.536,134.636 L172.709,130.747 ZM170.550,120.693 L168.767,129.93 L172.354,129.93 L170.550,120.693 ZM171.942,160.907 L168.558,160.907 L168.558,174.636 L166.635,174.636 L166.635,160.907 L163.251,160.907 L163.251,159.232 L171.942,159.232 L171.942,160.907 ZM157.915,120.821 L155.562,129.469 L153.736,129.469 L151.384,120.821 L151.384,134.636 L149.622,134.636 L149.622,119.232 L152.726,119.232 L154.724,127.116 L156.701,119.232 L159.741,119.232 L159.741,134.636 L157.915,134.636 L157.915,120.821 ZM150.13,174.636 L143.191,174.636 L143.191,159.232 L145.104,159.232 L145.104,172.960 L150.13,172.960 L150.13,174.636 ZM142.14,134.636 L139.189,128.255 L137.234,128.255 L137.234,134.636 L135.322,134.636 L135.322,119.232 C135.508,119.217 135.698,119.203 135.891,119.189 C136.85,119.174 136.285,119.160 136.493,119.146 C136.844,119.117 137.243,119.99 137.691,119.92 C138.138,119.85 138.588,119.81 139.39,119.81 C139.877,119.81 140.569,119.185 141.117,119.393 C141.665,119.601 142.104,119.905 142.433,120.306 C142.755,120.700 142.981,121.174 143.110,121.729 C143.239,122.284 143.303,122.898 143.303,123.571 C143.303,124.717 143.135,125.655 142.798,126.386 C142.462,127.116 141.900,127.636 141.112,127.944 L144.120,134.636 L142.14,134.636 ZM141.348,123.722 C141.348,122.655 141.201,121.880 140.908,121.396 C140.614,120.913 140.81,120.671 139.307,120.671 C138.691,120.671 138.190,120.693 137.803,120.736 C137.588,120.764 137.399,120.786 137.234,120.800 L137.234,126.654 L139.307,126.654 C139.615,126.654 139.893,126.613 140.140,126.531 C140.387,126.449 140.603,126.300 140.790,126.85 C141.162,125.670 141.348,124.882 141.348,123.722 ZM137.711,174.636 L130.890,174.636 L130.890,159.232 L132.802,159.232 L132.802,172.960 L137.711,172.960 L137.711,174.636 ZM127.843,132.799 C127.499,133.465 127.30,133.963 126.436,134.292 C125.841,134.622 125.89,134.786 124.180,134.786 C123.271,134.786 122.519,134.622 121.924,134.292 C121.330,133.963 120.861,133.465 120.517,132.799 C120.173,132.133 119.932,131.297 119.792,130.291 C119.652,129.285 119.582,128.108 119.582,126.762 C119.582,125.473 119.652,124.347 119.792,123.383 C119.932,122.420 120.173,121.620 120.517,120.983 C120.861,120.345 121.330,119.869 121.924,119.554 C122.519,119.239 123.271,119.81 124.180,119.81 C125.89,119.81 125.841,119.239 126.436,119.554 C127.30,119.869 127.499,120.345 127.843,120.983 C128.187,121.620 128.429,122.420 128.568,123.383 C128.708,124.347 128.778,125.473 128.778,126.762 C128.778,128.108 128.708,129.285 128.568,130.291 C128.429,131.297 128.187,132.133 127.843,132.799 ZM126.694,123.856 C126.608,123.65 126.461,122.433 126.253,121.960 C126.53,121.495 125.782,121.167 125.442,120.977 C125.102,120.788 124.681,120.693 124.180,120.693 C123.679,120.693 123.262,120.788 122.929,120.977 C122.596,121.167 122.325,121.495 122.118,121.960 C121.731,122.855 121.538,124.492 121.538,126.869 C121.538,129.211 121.731,130.851 122.118,131.789 C122.325,132.291 122.596,132.649 122.929,132.863 C123.262,133.78 123.679,133.186 124.180,133.186 C124.681,133.186 125.102,133.78 125.442,132.863 C125.782,132.649 126.53,132.291 126.253,131.789 C126.461,131.295 126.608,130.649 126.694,129.850 C126.780,129.52 126.823,128.58 126.823,126.869 C126.823,125.652 126.780,124.648 126.694,123.856 ZM125.173,174.636 L123.207,174.636 L122.380,170.747 L118.83,170.747 L117.223,174.636 L115.268,174.636 L118.985,159.232 L121.520,159.232 L125.173,174.636 ZM118.437,169.93 L122.25,169.93 L120.220,160.693 L118.437,169.93 ZM108.634,126.96 L113.393,126.96 L113.393,127.707 L108.634,127.707 L108.634,134.636 L106.722,134.636 L106.722,119.232 L113.941,119.232 L113.941,120.843 L108.634,120.843 L108.634,126.96 ZM96.852,168.255 L94.897,168.255 L94.897,174.636 L92.985,174.636 L92.985,159.232 C93.171,159.217 93.361,159.203 93.554,159.189 C93.747,159.174 93.948,159.160 94.156,159.146 C94.506,159.117 94.906,159.99 95.353,159.92 C95.801,159.85 96.250,159.81 96.701,159.81 C97.539,159.81 98.232,159.185 98.780,159.393 C99.328,159.601 99.766,159.905 100.96,160.306 C100.418,160.700 100.644,161.174 100.773,161.729 C100.902,162.284 100.966,162.898 100.966,163.571 C100.966,164.717 100.798,165.655 100.461,166.386 C100.125,167.116 99.562,167.636 98.775,167.944 L101.782,174.636 L99.677,174.636 L96.852,168.255 ZM99.11,163.722 C99.11,162.655 98.864,161.880 98.571,161.396 C98.277,160.913 97.743,160.671 96.970,160.671 C96.354,160.671 95.853,160.693 95.466,160.736 C95.251,160.764 95.61,160.786 94.897,160.800 L94.897,166.654 L96.970,166.654 C97.278,166.654 97.555,166.613 97.803,166.531 C98.50,166.449 98.266,166.300 98.452,166.85 C98.825,165.670 99.11,164.882 99.11,163.722 ZM99.114,134.636 L96.289,128.255 L94.334,128.255 L94.334,134.636 L92.422,134.636 L92.422,119.232 C92.608,119.217 92.798,119.203 92.991,119.189 C93.185,119.174 93.385,119.160 93.593,119.146 C93.944,119.117 94.343,119.99 94.791,119.92 C95.238,119.85 95.688,119.81 96.139,119.81 C96.977,119.81 97.669,119.185 98.217,119.393 C98.765,119.601 99.204,119.905 99.533,120.306 C99.855,120.700 100.81,121.174 100.210,121.729 C100.339,122.284 100.403,122.898 100.403,123.571 C100.403,124.717 100.235,125.655 99.898,126.386 C99.562,127.116 99.0,127.636 98.212,127.944 L101.220,134.636 L99.114,134.636 ZM98.448,123.722 C98.448,122.655 98.301,121.880 98.8,121.396 C97.714,120.913 97.181,120.671 96.407,120.671 C95.791,120.671 95.290,120.693 94.903,120.736 C94.688,120.764 94.499,120.786 94.334,120.800 L94.334,126.654 L96.407,126.654 C96.715,126.654 96.993,126.613 97.240,126.531 C97.487,126.449 97.703,126.300 97.890,126.85 C98.262,125.670 98.448,124.882 98.448,123.722 ZM85.506,172.799 C85.162,173.465 84.693,173.963 84.99,174.292 C83.504,174.622 82.752,174.786 81.843,174.786 C80.933,174.786 80.181,174.622 79.587,174.292 C78.992,173.963 78.524,173.465 78.180,172.799 C77.836,172.133 77.594,171.297 77.455,170.291 C77.315,169.285 77.245,168.108 77.245,166.762 C77.245,165.473 77.315,164.347 77.455,163.383 C77.594,162.420 77.836,161.620 78.180,160.983 C78.524,160.345 78.992,159.869 79.587,159.554 C80.181,159.239 80.933,159.81 81.843,159.81 C82.752,159.81 83.504,159.239 84.99,159.554 C84.693,159.869 85.162,160.345 85.506,160.983 C85.850,161.620 86.91,162.420 86.231,163.383 C86.371,164.347 86.440,165.473 86.440,166.762 C86.440,168.108 86.371,169.285 86.231,170.291 C86.91,171.297 85.850,172.133 85.506,172.799 ZM84.357,163.856 C84.271,163.65 84.124,162.433 83.916,161.960 C83.716,161.495 83.445,161.167 83.105,160.977 C82.765,160.788 82.344,160.693 81.843,160.693 C81.341,160.693 80.924,160.788 80.591,160.977 C80.258,161.167 79.988,161.495 79.780,161.960 C79.394,162.855 79.200,164.492 79.200,166.869 C79.200,169.211 79.394,170.851 79.780,171.789 C79.988,172.291 80.258,172.649 80.591,172.863 C80.924,173.78 81.341,173.186 81.843,173.186 C82.344,173.186 82.765,173.78 83.105,172.863 C83.445,172.649 83.716,172.291 83.916,171.789 C84.124,171.295 84.271,170.649 84.357,169.850 C84.442,169.52 84.485,168.58 84.485,166.869 C84.485,165.652 84.442,164.648 84.357,163.856 ZM79.121,119.232 L86.340,119.232 L86.340,120.843 L81.33,120.843 L81.33,125.881 L85.792,125.881 L85.792,127.482 L81.33,127.482 L81.33,133.25 L86.340,133.25 L86.340,134.636 L79.121,134.636 L79.121,119.232 ZM71.889,127.589 C71.202,128.413 70.99,128.824 68.581,128.824 L66.733,128.824 L66.733,134.636 L64.821,134.636 L64.821,119.232 C65.7,119.217 65.197,119.203 65.390,119.189 C65.584,119.174 65.784,119.160 65.992,119.146 C66.343,119.117 66.742,119.99 67.190,119.92 C67.637,119.85 68.87,119.81 68.538,119.81 C69.376,119.81 70.74,119.203 70.632,119.446 C71.191,119.690 71.635,120.27 71.964,120.456 C72.301,120.886 72.534,121.391 72.663,121.971 C72.792,122.551 72.856,123.178 72.856,123.851 C72.856,124.689 72.779,125.419 72.625,126.42 C72.471,126.665 72.226,127.181 71.889,127.589 ZM70.439,121.514 C70.138,120.952 69.594,120.671 68.806,120.671 C68.190,120.671 67.689,120.693 67.302,120.736 C67.88,120.764 66.898,120.786 66.733,120.800 L66.733,127.224 L68.806,127.224 C69.114,127.224 69.395,127.168 69.650,127.57 C69.904,126.946 70.124,126.766 70.310,126.515 C70.496,126.264 70.639,125.935 70.740,125.527 C70.840,125.118 70.890,124.613 70.890,124.12 C70.890,122.909 70.740,122.77 70.439,121.514 ZM71.603,160.843 L66.297,160.843 L66.297,166.96 L71.56,166.96 L71.56,167.707 L66.297,167.707 L66.297,174.636 L64.385,174.636 L64.385,159.232 L71.603,159.232 L71.603,160.843 ZM46.662,127.557 L42.129,127.557 L42.129,134.636 L40.217,134.636 L40.217,119.232 L42.129,119.232 L42.129,125.924 L46.662,125.924 L46.662,119.232 L48.574,119.232 L48.574,134.636 L46.662,134.636 L46.662,127.557 ZM30.53,134.786 C29.215,134.786 28.502,134.674 27.915,134.448 C27.328,134.222 26.855,133.809 26.497,133.207 C26.139,132.606 25.879,131.780 25.718,130.731 C25.557,129.682 25.477,128.337 25.477,126.697 C25.477,125.65 25.580,123.754 25.788,122.766 C25.996,121.778 26.307,121.8 26.723,120.456 C27.145,119.905 27.677,119.538 28.318,119.355 C28.959,119.173 29.713,119.81 30.579,119.81 C30.959,119.81 31.396,119.113 31.890,119.178 C32.384,119.242 32.771,119.314 33.50,119.393 L33.50,120.972 C32.577,120.886 32.99,120.818 31.616,120.768 C31.132,120.718 30.654,120.693 30.182,120.693 C29.716,120.693 29.312,120.759 28.968,120.891 C28.624,121.24 28.338,121.312 28.108,121.756 C27.886,122.193 27.718,122.818 27.604,123.631 C27.489,124.443 27.432,125.516 27.432,126.848 C27.432,128.230 27.482,129.338 27.582,130.173 C27.682,131.7 27.833,131.646 28.33,132.90 C28.241,132.541 28.501,132.837 28.812,132.976 C29.124,133.116 29.501,133.186 29.945,133.186 C30.196,133.186 30.475,133.171 30.783,133.143 C31.91,133.114 31.392,133.75 31.686,133.25 L31.686,128.148 L29.720,128.148 L29.720,126.536 L33.512,126.536 L33.512,134.421 C32.924,134.536 32.352,134.625 31.793,134.690 C31.234,134.754 30.654,134.786 30.53,134.786 ZM14.732,133.25 L16.268,133.25 L16.268,120.843 L14.732,120.843 L14.732,119.232 L19.727,119.232 L19.727,120.843 L18.191,120.843 L18.191,133.25 L19.727,133.25 L19.727,134.636 L14.732,134.636 L14.732,133.25 ZM6.759,127.557 L2.226,127.557 L2.226,134.636 L0.314,134.636 L0.314,119.232 L2.226,119.232 L2.226,125.924 L6.759,125.924 L6.759,119.232 L8.672,119.232 L8.672,134.636 L6.759,134.636 L6.759,127.557 ZM363.249,172.960 L368.159,172.960 L368.159,174.636 L361.337,174.636 L361.337,159.232 L363.249,159.232 L363.249,172.960 Z"/>
</svg>