<svg 
    xmlns="http://www.w3.org/2000/svg"
    xmlns:xlink="http://www.w3.org/1999/xlink"
    width="178px" height="31px" viewbox ="0 0 178 31">
    <path fill-rule="evenodd"  fill="rgb(255, 255, 255)"
    d="M174.58,5.966 C172.378,5.966 171.16,4.630 171.16,2.987 C171.16,1.339 172.378,0.7 174.58,0.7 C175.741,0.7 177.102,1.339 177.102,2.987 C177.102,4.630 175.741,5.966 174.58,5.966 ZM174.58,0.453 C172.631,0.458 171.475,1.588 171.474,2.987 C171.475,4.383 172.631,5.515 174.58,5.517 C174.823,5.516 175.508,5.189 175.982,4.672 L175.137,4.672 C175.71,4.573 175.9,4.453 175.3,3.937 C174.991,3.392 174.821,3.233 174.313,3.233 L173.146,3.233 L173.146,4.672 L172.474,4.672 L172.474,1.209 L174.405,1.209 C175.282,1.209 175.761,1.596 175.761,2.169 C175.761,2.281 175.736,2.466 175.609,2.649 C175.439,2.878 175.251,2.920 175.76,2.959 C175.469,3.55 175.664,3.165 175.676,3.869 C175.689,4.475 175.790,4.547 175.983,4.671 C176.393,4.224 176.645,3.635 176.645,2.987 C176.644,1.588 175.487,0.458 174.58,0.453 ZM175.83,2.206 C175.83,2.31 174.985,1.684 174.416,1.684 L173.146,1.684 L173.146,2.761 L174.411,2.761 C174.694,2.761 175.83,2.591 175.83,2.206 ZM163.653,24.995 L161.271,30.8 L150.227,30.12 L152.711,24.771 C152.711,24.771 153.913,24.854 154.235,23.714 L154.501,22.672 L150.647,22.672 L149.743,24.12 C149.407,24.575 150.286,24.891 150.599,25.21 L148.226,30.12 L138.532,30.12 L141.14,24.768 C141.217,24.768 141.956,24.854 142.859,23.457 L157.118,2.219 L167.673,2.219 L162.811,23.884 C162.573,24.917 163.653,24.995 163.653,24.995 ZM154.174,17.203 L155.962,17.203 L157.624,11.309 L154.174,17.203 ZM146.719,9.9 L136.775,30.12 L128.334,30.12 L128.574,16.660 L125.705,23.34 C125.89,24.369 125.614,24.747 126.145,24.998 L123.727,30.8 L115.414,30.8 L117.926,24.711 L118.131,24.711 C118.636,24.711 119.424,24.150 119.815,23.310 C120.37,22.846 126.613,8.941 126.622,8.923 C127.114,7.825 125.986,7.674 125.986,7.674 L128.568,2.213 L138.257,2.224 L137.938,14.765 L140.565,8.728 C141.27,7.718 140.275,7.721 139.847,7.674 L142.426,2.179 L151.233,2.179 L148.563,7.796 C148.563,7.796 147.256,7.885 146.719,9.9 ZM116.394,23.611 C114.621,27.350 110.86,30.383 106.266,30.383 L98.393,30.383 C94.572,30.383 92.912,27.350 94.682,23.611 L101.766,8.667 C103.537,4.928 108.73,1.895 111.896,1.895 L119.765,1.895 C123.588,1.895 125.249,4.928 123.476,8.667 L116.394,23.611 ZM113.78,7.703 C112.193,7.703 111.141,8.404 110.731,9.273 L104.221,23.8 C103.810,23.874 104.195,24.575 105.81,24.575 C105.967,24.575 107.19,23.874 107.431,23.8 L113.939,9.273 C114.349,8.404 113.965,7.703 113.78,7.703 ZM90.815,14.527 L93.72,9.695 C93.411,8.884 92.929,8.164 92.618,7.903 L85.361,23.105 C84.682,24.596 85.500,24.854 85.875,25.26 L83.514,30.10 L72.115,30.10 L74.587,24.805 C75.122,24.805 76.346,24.173 76.941,22.745 L83.970,7.841 C83.98,8.47 82.146,8.728 81.802,9.604 L79.441,14.527 L73.23,14.527 L78.846,2.219 L103.42,2.219 L97.213,14.527 L90.815,14.527 ZM73.809,8.248 L62.729,19.459 L61.45,23.89 C60.383,24.604 61.43,24.758 61.489,25.84 L59.159,30.10 L47.659,30.10 L50.186,24.771 C50.350,24.771 51.410,24.878 52.47,23.540 L54.481,18.468 L54.127,8.831 C54.127,7.799 52.989,7.688 52.989,7.688 L55.578,2.221 L65.602,2.221 L63.65,7.580 C63.65,7.580 62.855,7.596 62.855,7.700 C62.855,7.700 62.855,7.744 62.844,11.429 C62.844,11.429 66.87,7.523 66.87,7.518 L65.983,7.372 L68.520,2.221 L77.882,2.221 L75.195,7.898 C75.195,7.898 74.327,7.742 73.809,8.248 ZM47.839,24.995 L45.457,30.8 L34.413,30.12 L36.895,24.771 C36.895,24.771 38.99,24.854 38.420,23.714 L38.687,22.672 L34.833,22.672 L33.927,24.12 C33.593,24.575 34.471,24.891 34.785,25.21 L32.412,30.12 L22.718,30.12 L25.199,24.768 C25.402,24.768 26.142,24.854 27.45,23.457 L41.303,2.219 L51.859,2.219 L46.997,23.884 C46.757,24.917 47.839,24.995 47.839,24.995 ZM38.359,17.203 L40.148,17.203 L41.809,11.309 L38.359,17.203 ZM24.393,23.394 C23.71,26.406 20.153,30.5 13.766,30.5 L0.2,30.12 L2.448,24.779 C2.448,24.779 3.651,24.805 4.231,23.537 C4.417,23.128 11.281,8.767 11.281,8.767 C11.453,8.422 11.766,7.757 10.495,7.757 L13.146,2.174 L24.390,2.174 C30.834,2.174 32.51,7.392 30.222,11.200 L24.393,23.394 ZM21.674,7.903 L20.452,7.903 L12.442,24.758 L13.488,24.758 C14.535,24.758 15.542,23.743 15.743,23.310 L22.354,9.363 C22.759,8.459 22.277,7.903 21.674,7.903 Z"/>
</svg>